<svg width="125" height="60" viewBox="0 0 125 60" fill="none" xmlns="http://www.w3.org/2000/svg">
<path d="M36.9039 30.7222C36.9002 30.715 36.8971 30.7071 36.8935 30.6993C28.4487 32.2069 24.691 28.7324 25.7997 24.6205C24.0265 26.1307 23.5414 28.2346 24.959 29.7557C24.1898 29.7317 22.9163 29.1037 22.8634 26.4874C20.3455 30.9144 23.1895 33.3781 25.7281 33.6051C26.0433 33.5083 25.7566 33.8837 23.1355 33.7281C25.1383 36.4542 29.0152 36.449 32.1977 35.3763C31.9649 31.9971 35.0519 31.1956 36.9039 30.7222Z" fill="#F5E74E"/>
<path d="M89.0967 30.7222C89.0999 30.715 89.1032 30.7071 89.1069 30.6993C97.5515 32.2069 101.309 28.7324 100.201 24.6205C101.974 26.1307 102.459 28.2346 101.041 29.7557C101.81 29.7317 103.084 29.1037 103.137 26.4874C105.655 30.9144 102.811 33.3781 100.273 33.6051C99.9572 33.5083 100.244 33.8837 102.865 33.7281C100.862 36.4542 96.985 36.449 93.8028 35.3763C96.0891 32.4288 90.9483 31.1956 89.0967 30.7222Z" fill="#F5E74E"/>
<path d="M31.285 25.1491C28.2597 23.9946 28.5017 21.5127 28.8645 20.4602C29.3346 19.0984 30.5993 17.8793 34.3057 17.9876C36.5992 18.0543 38.8393 18.4865 40.3585 19.1244L38.6299 23.1874C37.5596 22.4881 36.1638 22.1875 35.163 22.1069C34.6566 22.0657 34.6836 22.4021 34.9639 22.4641C36.4608 22.7922 40.9208 23.5535 40.4424 27.0697C40.19 28.9246 38.0043 30.6514 34.4202 30.7196C30.7045 30.7905 28.3291 29.4443 28.3291 29.4443L29.2154 24.7674C30.633 25.8136 33.5733 26.2166 34.4825 26.2125C34.7374 26.2114 34.8276 25.9141 34.4488 25.8495C33.4453 25.6787 32.4839 25.6074 31.285 25.1502V25.1491Z" fill="#F5E74E"/>
<path d="M48.157 30.2296C48.1632 29.9145 48.1565 29.5797 48.1378 29.2287H45.8267C45.808 29.5797 45.8013 29.9151 45.8075 30.2296H39.7324L43.7338 18.2563H50.2313L54.2326 30.2296H48.157ZM47.6092 25.2949C47.4283 24.369 47.2131 23.4332 46.982 22.536C46.7503 23.4332 46.5363 24.3685 46.3549 25.2949H47.6092Z" fill="#F5E74E"/>
<path d="M60.6506 29.2553C60.6024 27.8857 60.2981 26.1854 59.7399 24.4544V30.2291H54.4609V18.2563H60.2794C60.5858 20.9841 61.3528 23.7352 62.0619 25.2642C62.7709 23.7347 63.5388 20.9841 63.8444 18.2563H69.6634V30.2296H64.3844V24.4549C63.8255 26.1859 63.522 27.8857 63.474 29.2558H60.6511L60.6506 29.2553Z" fill="#F5E74E"/>
<path d="M82.8683 26.7098C82.8673 26.8692 82.8489 27.0327 82.8176 27.1988C82.4822 28.9564 80.9357 30.2286 79.1342 30.2286C75.9223 30.2291 70.2383 30.2291 70.2383 30.2291V18.2569C70.2383 18.2569 78.0445 18.2553 78.5867 18.2647C79.8281 18.2949 80.967 18.9323 81.6053 19.9546C81.9487 20.5097 82.1523 21.1523 82.1609 21.8298V21.849C82.1555 22.6422 81.8936 23.3764 81.453 23.9779C81.8067 24.2305 82.1107 24.5497 82.344 24.9231C82.668 25.447 82.8602 26.0531 82.8678 26.6921V26.7103L82.8683 26.7098ZM77.1168 22.4396C77.1168 22.0485 76.7977 21.7319 76.404 21.7319H75.5179V23.1483H76.404C76.7982 23.1483 77.1168 22.8312 77.1168 22.4396ZM77.1168 25.8729C77.1168 25.4819 76.7977 25.1652 76.404 25.1652H75.5179V26.5817H76.404C76.7982 26.5817 77.1168 26.2651 77.1168 25.874V25.8729Z" fill="#F5E74E"/>
<path d="M90.5315 30.2296C90.5375 29.9145 90.531 29.5797 90.5121 29.2287H88.2009C88.1825 29.5797 88.1755 29.9151 88.182 30.2296H82.1064L86.1078 18.2563H92.6057L96.6071 30.2296H90.5315ZM89.9834 25.2949C89.8025 24.369 89.5876 23.4332 89.3565 22.536C89.1248 23.4332 88.9104 24.3685 88.729 25.2949H89.9834Z" fill="#F5E74E"/>
<path d="M35.6641 39.2559C32.5838 38.067 32.8305 35.5106 33.1995 34.4269C33.6785 33.024 34.9659 31.769 38.7392 31.8799C41.0742 31.9486 43.3553 32.3933 44.9014 33.0505L43.1417 37.2353C42.0522 36.5151 40.631 36.2058 39.612 36.1225C39.0963 36.0803 39.1238 36.4266 39.4094 36.4901C40.9337 36.8281 45.4741 37.6124 44.9869 41.2337C44.7298 43.1443 42.7157 44.7082 39.0668 44.7785C35.2837 44.8514 32.6543 43.6792 32.6543 43.6792L33.5566 38.8622C35.0002 39.9396 37.9939 40.3552 38.9191 40.351C39.1782 40.35 39.2705 40.0438 38.8849 39.9771C37.8632 39.8011 36.8842 39.7277 35.6636 39.2564L35.6641 39.2559Z" fill="#F5E74E"/>
<path d="M50.9901 40.0292C52.6015 40.0318 53.9569 40.0625 55.5398 39.6725L54.9862 44.4884H45.6152V32.1564H50.9896V40.0287L50.9901 40.0292Z" fill="#F5E74E"/>
<path d="M69.6358 38.2847V38.3175C69.6153 41.1082 67.8074 43.4761 65.3018 44.3307C63.7887 44.8467 61.7737 44.9676 59.9052 44.3463C57.3753 43.5053 55.5452 41.1249 55.5244 38.3169C55.5452 35.5262 57.353 33.1578 59.8585 32.3033C61.3714 31.7872 63.3864 31.6664 65.2553 32.2877C67.775 33.125 69.6012 35.4903 69.6353 38.2836L69.6358 38.2847ZM63.597 37.8446C63.4712 37.4093 63.1212 37.0953 62.7092 37.0916C62.2946 37.0953 61.9431 37.4129 61.8188 37.8525C61.727 38.1768 61.7452 38.5273 61.8214 38.7898C61.9473 39.2252 62.2971 39.5387 62.7097 39.5428H62.7144C63.1272 39.5371 63.4766 39.2194 63.6002 38.782C63.692 38.4576 63.6737 38.1071 63.5975 37.8446H63.597Z" fill="#F5E74E"/>
<path d="M70.1678 32.1637H80.9181V36.3766H78.0836V44.4957H72.7095V36.3766C71.6814 36.3677 70.7914 36.3854 69.5889 36.5682L70.1678 32.1637Z" fill="#F5E74E"/>
<path d="M83.9982 39.2559C80.9181 38.067 81.1649 35.5106 81.5337 34.4269C82.0127 33.024 83.3 31.769 87.0735 31.8799C89.4085 31.9486 91.6895 32.3933 93.2355 33.0505L91.4756 37.2353C90.3864 36.5151 88.9652 36.2058 87.9462 36.1225C87.4305 36.0803 87.458 36.4266 87.7437 36.4901C89.2676 36.8281 93.8084 37.6124 93.3208 41.2337C93.0638 43.1443 91.0496 44.7082 87.4008 44.7785C83.6175 44.8514 80.9883 43.6792 80.9883 43.6792L81.8906 38.8622C83.334 39.9396 86.3278 40.3552 87.2534 40.351C87.5126 40.35 87.6044 40.0438 87.2188 39.9771C86.1971 39.8011 85.2181 39.7277 83.9977 39.2564L83.9982 39.2559Z" fill="#F5E74E"/>
<path d="M39.8473 13.9109L39.5604 15.2634C39.5604 15.2634 38.0386 15.9775 37.4902 14.6385C36.9417 13.2995 36.3475 12.9015 35.8883 13.1362L35.8223 11.7588C35.8223 11.7588 37.3808 11.2965 37.9358 12.7795C38.4907 14.2626 39.8473 13.9109 39.8473 13.9109Z" fill="#F5E74E"/>
<path d="M67.2327 13.2002L66.4519 13.2287C66.4519 13.2287 66.0053 12.3019 66.7575 11.7013C67.5098 11.1008 67.7225 10.6259 67.5767 10.3494L68.363 10.0741C68.363 10.0741 68.6664 11.0682 67.8321 11.6973C66.9978 12.3264 67.2327 13.2002 67.2327 13.2002Z" fill="#F5E74E"/>
<path d="M96.2469 19.5461C96.6681 19.5461 97.0093 19.2035 97.0093 18.781C97.0093 18.3585 96.6681 18.0159 96.2469 18.0159C95.8257 18.0159 95.4844 18.3585 95.4844 18.781C95.4844 19.2035 95.8257 19.5461 96.2469 19.5461Z" fill="#F5E74E"/>
<path d="M42.7574 47.2502C43.1784 47.2502 43.5197 46.9076 43.5197 46.4851C43.5197 46.0626 43.1784 45.72 42.7574 45.72C42.3364 45.72 41.9951 46.0626 41.9951 46.4851C41.9951 46.9076 42.3364 47.2502 42.7574 47.2502Z" fill="#F5E74E"/>
<path d="M29.5923 15.9007C30.0134 15.9007 30.3547 15.5582 30.3547 15.1357C30.3547 14.7131 30.0134 14.3706 29.5923 14.3706C29.1714 14.3706 28.8301 14.7131 28.8301 15.1357C28.8301 15.5582 29.1714 15.9007 29.5923 15.9007Z" fill="#F5E74E"/>
<path d="M30.7503 39.4054C30.7503 39.4054 30.1102 40.1834 29.1162 40.3445C29.1162 40.3445 28.9233 37.7704 26.9572 38.5013C26.0438 38.8403 26.0201 39.9711 26.2077 40.4098C26.3516 40.7464 27.0843 41.6334 27.6256 41.5137C27.6252 41.7628 27.7651 42.4345 26.5041 42.708L26.8749 43.7218C26.8749 43.7218 28.1101 43.4463 28.7515 41.7355C28.7515 41.7355 30.7433 41.5918 31.5475 39.7583L30.7503 39.4054ZM28.129 40.5218C27.8509 40.7478 27.4316 40.6835 27.1933 40.3795C26.9541 40.0751 26.9867 39.6454 27.2648 39.4194C27.5428 39.1934 27.962 39.2576 28.2004 39.5617C28.4396 39.8661 28.407 40.2958 28.129 40.5218Z" fill="#F5E74E"/>
<path d="M96.3671 40.7394C96.3671 40.7394 97.0432 39.993 98.0438 39.8796C98.0438 39.8796 98.1145 42.46 100.113 41.824C101.041 41.5292 101.119 40.4008 100.952 39.9536C100.824 39.6105 100.135 38.6894 99.5882 38.7831C99.6006 38.5342 99.4926 37.8567 100.765 37.6438L100.443 36.6135C100.443 36.6135 99.1962 36.8295 98.4742 38.5076C98.4742 38.5076 96.4778 38.5558 95.5879 40.3487L96.3671 40.7394ZM99.0385 39.7497C99.3269 39.5373 99.7426 39.6215 99.9662 39.9367C100.191 40.2522 100.138 40.6798 99.8496 40.8923C99.5607 41.1047 99.1454 41.0205 98.9213 40.7053C98.6972 40.3898 98.7501 39.9622 99.0385 39.7497Z" fill="#F5E74E"/>
<path d="M60.4821 12.5643C60.4821 12.5643 59.693 13.189 58.6875 13.1357C58.6875 13.1357 59.0398 10.5787 56.9644 10.8762C56.0004 11.0138 55.7396 12.1141 55.8309 12.5828C55.9008 12.9423 56.4305 13.9647 56.9849 13.9625C56.9321 14.2059 56.9278 14.8921 55.6377 14.892L55.7872 15.9616C55.7872 15.9616 57.0523 15.9542 58.0388 14.4181C58.0388 14.4181 60.0159 14.7 61.1871 13.0784L60.4821 12.5643ZM57.6852 13.0997C57.366 13.2616 56.9697 13.1099 56.8006 12.7621C56.6308 12.4138 56.7529 12.0007 57.0722 11.8388C57.3914 11.6769 57.7877 11.8286 57.9568 12.1764C58.1266 12.5247 58.0045 12.9378 57.6852 13.0997Z" fill="#F5E74E"/>
<path d="M83.8435 9.24072L84.1869 10.432C84.1869 10.432 82.2867 10.1988 82.4476 11.4654C82.6085 12.7321 83.3197 14.6242 80.4399 15.1424L80.1348 14.1497C80.1348 14.1497 81.8925 13.7243 81.3325 11.5862C80.772 9.44807 83.8435 9.24072 83.8435 9.24072Z" fill="#F5E74E"/>
</svg>
